<?xml version="1.0" encoding="UTF-8"?>
<svg id="_Layer_" data-name="&amp;lt;Layer&amp;gt;" xmlns="http://www.w3.org/2000/svg" viewBox="0 0 512 512">
  <defs>
    <style>
      .cls-1 {
        fill: #f15a22;
      }

      .cls-2 {
        fill: none;
        stroke: #f15a22;
        stroke-miterlimit: 10;
        stroke-width: 11px;
      }
    </style>
  </defs>
  <path class="cls-1" d="m296.86,139.23s-64.57,237.88-67.62,240.35c-.84.62-3.78-1.1-4.18-1.88s-8.58-17.58-8.99-24c-.41-6.43,53.63-199.13,57.33-203.8s16.73-11.03,19.46-12.18,4,1.52,4,1.52Z"/>
  <g>
    <line class="cls-2" x1="226.65" y1="322.63" x2="223.46" y2="333.86"/>
    <line class="cls-2" x1="240.84" y1="272.56" x2="237.66" y2="283.79"/>
    <line class="cls-2" x1="236.1" y1="289.3" x2="232.91" y2="300.53"/>
    <line class="cls-2" x1="231.46" y1="305.66" x2="228.27" y2="316.89"/>
    <line class="cls-2" x1="245.64" y1="255.63" x2="242.46" y2="266.86"/>
    <line class="cls-2" x1="250.64" y1="236.54" x2="247.46" y2="247.77"/>
    <line class="cls-2" x1="264.84" y1="186.47" x2="261.66" y2="197.7"/>
    <line class="cls-2" x1="260.09" y1="203.21" x2="256.91" y2="214.44"/>
    <line class="cls-2" x1="255.46" y1="219.57" x2="252.27" y2="230.8"/>
    <line class="cls-2" x1="269.64" y1="169.54" x2="266.46" y2="180.77"/>
  </g>
</svg>